<svg width="72" height="72" viewBox="0 0 72 72" fill="none" xmlns="http://www.w3.org/2000/svg">
<path d="M36.4457 36.0889C40.436 36.0889 43.6707 32.8542 43.6707 28.8639C43.6707 24.8737 40.436 21.6389 36.4457 21.6389C32.4554 21.6389 29.2207 24.8737 29.2207 28.8639C29.2207 32.8542 32.4554 36.0889 36.4457 36.0889Z" fill="white"/>
<path d="M52.5736 29.11C52.5736 19.795 45.4406 12.218 36.6706 12.218C27.9006 12.218 20.7676 19.795 20.7676 29.114C20.7696 29.579 20.9906 40.723 33.7276 60.359C33.9897 60.8978 34.3871 61.3592 34.8811 61.6983C35.3751 62.0373 35.9486 62.2422 36.5456 62.293C38.3856 62.293 39.6396 60.267 39.7616 60.061C52.5806 40.414 52.5806 29.553 52.5736 29.11ZM36.6706 35.914C35.2697 35.914 33.9003 35.4986 32.7355 34.7203C31.5707 33.942 30.6628 32.8358 30.1267 31.5416C29.5906 30.2473 29.4504 28.8232 29.7237 27.4492C29.997 26.0752 30.6716 24.8132 31.6621 23.8226C32.6527 22.832 33.9148 22.1574 35.2888 21.8841C36.6627 21.6108 38.0869 21.7511 39.3811 22.2872C40.6754 22.8233 41.7816 23.7311 42.5599 24.8959C43.3382 26.0607 43.7536 27.4301 43.7536 28.831C43.7517 30.709 43.0049 32.5095 41.677 33.8374C40.3491 35.1653 38.5485 35.9122 36.6706 35.914Z" fill="#D22F27"/>
<path d="M52.5727 29.11C52.5727 19.795 45.4397 12.218 36.6697 12.218C35.364 12.2241 34.0647 12.4005 32.8047 12.743C41.1997 13.193 47.9047 20.566 47.9047 29.593C47.9107 30.036 47.9107 40.896 35.0917 60.543C34.9186 60.8244 34.7226 61.0909 34.5057 61.34C35.0257 61.924 35.7627 62.268 36.5457 62.294C38.3847 62.294 39.6387 60.267 39.7607 60.061C52.5797 40.414 52.5797 29.553 52.5727 29.11Z" fill="#EA5A47"/>
<path d="M36.5446 62.294C35.9477 62.2429 35.3743 62.0378 34.8805 61.6986C34.3868 61.3594 33.9895 60.8978 33.7276 60.359C20.9896 40.723 20.7686 29.58 20.7656 29.114C20.7656 19.794 27.8996 12.218 36.6696 12.218C45.4396 12.218 52.5726 19.795 52.5726 29.11C52.5796 29.554 52.5796 40.414 39.7606 60.06C39.6386 60.267 38.3836 62.294 36.5446 62.294Z" stroke="black" stroke-width="2" stroke-linecap="round" stroke-linejoin="round"/>
<path d="M36.6689 35.9141C35.2681 35.9141 33.8986 35.4986 32.7338 34.7203C31.569 33.9421 30.6612 32.8358 30.1251 31.5416C29.589 30.2473 29.4487 28.8232 29.722 27.4492C29.9953 26.0753 30.6699 24.8132 31.6605 23.8226C32.6511 22.832 33.9131 22.1574 35.2871 21.8841C36.6611 21.6108 38.0852 21.7511 39.3795 22.2872C40.6737 22.8233 41.7799 23.7312 42.5582 24.8959C43.3365 26.0607 43.7519 27.4302 43.7519 28.831C43.7501 30.709 43.0032 32.5095 41.6753 33.8374C40.3474 35.1654 38.5469 35.9122 36.6689 35.9141Z" stroke="black" stroke-width="2" stroke-linecap="round" stroke-linejoin="round"/>
</svg>
